<?xml version="1.0" standalone="no"?>
<!DOCTYPE svg PUBLIC "-//W3C//DTD SVG 20010904//EN"
 "http://www.w3.org/TR/2001/REC-SVG-20010904/DTD/svg10.dtd">
<svg version="1.0" xmlns="http://www.w3.org/2000/svg"
 width="1200.000000pt" height="1200.000000pt" viewBox="0 0 1200.000000 1200.000000"
 preserveAspectRatio="xMidYMid meet">

<g transform="translate(0.000000,1200.000000) scale(0.100000,-0.100000)"
fill="#000000" stroke="none">
<path d="M2400 10275 l0 -225 -225 0 -225 0 0 -225 0 -225 -225 0 -225 0 0
-4050 0 -4050 4050 0 4050 0 0 225 0 225 225 0 225 0 0 225 0 225 225 0 225 0
0 4050 0 4050 -4050 0 -4050 0 0 -225z m7950 -3825 l0 -3900 -150 0 -150 0 0
3750 0 3750 -3750 0 -3750 0 0 150 0 150 3900 0 3900 0 0 -3900z m-7950 3300
l0 -150 -150 0 -150 0 0 150 0 150 150 0 150 0 0 -150z m7500 -3525 l0 -3675
-150 0 -150 0 0 3525 0 3525 -3525 0 -3525 0 0 150 0 150 3675 0 3675 0 0
-3675z m-7950 -525 l0 -3750 3750 0 3750 0 0 -150 0 -150 -3900 0 -3900 0 0
3900 0 3900 150 0 150 0 0 -3750z m450 225 l0 -3525 3525 0 3525 0 0 -150 0
-150 -3675 0 -3675 0 0 3675 0 3675 150 0 150 0 0 -3525z m7050 75 l0 -3450
-3450 0 -3450 0 0 3450 0 3450 3450 0 3450 0 0 -3450z m450 -3750 l0 -150
-150 0 -150 0 0 150 0 150 150 0 150 0 0 -150z"/>
<path d="M5329 8234 c-64 -19 -140 -90 -170 -156 l-24 -53 -1 -1055 c-1 -580
2 -1077 7 -1103 18 -99 74 -174 162 -215 46 -22 51 -22 569 -22 504 0 525 1
568 21 65 29 127 94 150 157 18 47 20 78 20 293 l0 241 34 41 c18 23 45 66 60
95 l26 52 266 0 c233 0 270 2 295 17 59 35 59 35 59 560 0 456 -1 479 -20 510
-34 57 -37 57 -380 59 -173 1 -320 3 -327 3 -8 1 -12 53 -15 184 -3 180 -3
183 -33 235 -32 59 -66 91 -129 125 -41 22 -46 22 -556 24 -425 2 -523 -1
-561 -13z m1048 -76 c87 -22 153 -110 153 -205 l0 -33 -656 0 -657 0 6 58 c8
89 62 157 143 182 46 13 957 12 1011 -2z m153 -400 l0 -83 -204 0 c-192 0
-206 -1 -233 -21 -53 -40 -53 -33 -53 -552 0 -530 0 -526 60 -557 21 -11 61
-15 149 -15 106 0 120 -2 123 -17 6 -28 -11 -120 -32 -180 -10 -30 -16 -61
-13 -69 10 -26 52 -27 129 -2 l74 24 0 -83 0 -83 -655 0 -655 0 0 860 0 860
655 0 655 0 0 -82z m730 -187 c13 -25 14 -920 0 -941 -8 -13 -56 -16 -302 -20
l-292 -5 -24 -62 c-29 -76 -89 -146 -154 -179 -28 -14 -51 -24 -53 -22 -2 2 3
30 11 63 18 77 18 127 0 170 l-15 35 -143 0 c-99 0 -148 4 -156 12 -17 17 -17
939 0 956 9 9 148 12 565 12 536 0 553 -1 563 -19z m-732 -1629 c-3 -78 -7
-95 -33 -137 -20 -32 -45 -56 -74 -72 l-44 -23 -501 0 c-500 0 -502 0 -546 23
-26 13 -57 40 -75 65 -27 40 -30 52 -33 138 l-4 94 657 0 657 0 -4 -88z"/>
<path d="M5648 8079 c-24 -13 -23 -56 1 -69 11 -5 38 -10 61 -10 54 0 80 15
80 45 0 14 -8 29 -19 35 -25 13 -101 13 -123 -1z"/>
<path d="M5891 8074 c-27 -19 -27 -40 2 -58 31 -20 192 -19 213 1 16 17 18 32
4 53 -13 21 -189 24 -219 4z"/>
<path d="M5368 6443 c-22 -5 -30 -35 -26 -98 3 -55 25 -78 56 -59 26 17 30
139 5 152 -10 5 -26 7 -35 5z"/>
<path d="M5562 6432 c-44 -44 -15 -164 36 -148 41 13 45 127 5 153 -19 13 -24
12 -41 -5z"/>
<path d="M5778 6443 c-22 -5 -30 -35 -26 -98 3 -55 25 -78 56 -59 26 17 30
139 5 152 -10 5 -26 7 -35 5z"/>
<path d="M5976 6437 c-25 -18 -31 -102 -11 -134 18 -27 37 -29 60 -7 24 25 17
122 -11 140 -17 12 -23 12 -38 1z"/>
<path d="M6188 6443 c-22 -5 -30 -35 -26 -98 3 -55 25 -78 56 -59 26 17 30
139 5 152 -10 5 -26 7 -35 5z"/>
<path d="M6610 7494 c-96 -42 -131 -99 -150 -244 -8 -64 -23 -122 -47 -180
-51 -122 -53 -133 -36 -169 19 -38 59 -51 158 -51 68 -1 71 -2 90 -33 11 -17
32 -36 46 -41 34 -12 80 10 97 47 13 26 16 27 91 27 98 0 135 12 154 52 17 35
15 46 -36 168 -22 53 -39 118 -47 175 -15 104 -22 126 -57 177 -51 75 -177
109 -263 72z m149 -82 c56 -28 71 -58 88 -178 12 -80 26 -133 54 -198 22 -49
37 -91 35 -93 -1 -2 -111 -2 -244 -1 l-240 3 31 77 32 78 117 0 c108 0 118 2
132 22 11 15 12 26 5 40 -9 16 -23 18 -121 18 l-111 0 7 65 c11 104 33 145 91
171 42 18 84 17 124 -4z"/>
<path d="M5815 5925 c-29 -28 -31 -54 -10 -94 43 -85 178 -23 144 66 -22 57
-91 72 -134 28z"/>
<path d="M4670 4951 c-146 -45 -212 -193 -145 -328 34 -68 96 -109 255 -167
104 -38 144 -80 142 -153 0 -54 -27 -88 -83 -104 -93 -28 -195 27 -222 119
l-14 46 -54 0 -54 0 -3 -137 -3 -137 61 0 60 0 0 37 c0 37 0 37 16 15 38 -55
160 -85 250 -63 115 29 184 119 184 240 -1 140 -62 203 -287 292 -102 40 -133
69 -133 125 0 35 5 47 30 68 87 73 226 26 245 -82 l7 -42 59 0 59 0 0 135 0
135 -60 0 -60 0 0 -37 0 -37 -27 27 c-53 50 -148 71 -223 48z"/>
<path d="M6900 4520 l0 -430 70 0 70 0 0 92 c0 86 2 94 27 120 15 15 30 28 34
28 3 0 51 -54 105 -120 l99 -120 89 0 90 0 -26 28 c-13 15 -80 90 -147 166
l-123 139 138 138 139 139 -90 0 -90 1 -122 -128 -122 -128 -1 253 0 252 -70
0 -70 0 0 -430z"/>
<path d="M5470 4704 c-146 -53 -219 -172 -208 -338 6 -87 38 -156 98 -210 72
-65 119 -81 240 -81 94 0 111 3 160 27 30 15 65 36 78 47 l24 21 -33 45 c-18
25 -35 44 -38 43 -3 -2 -30 -16 -60 -32 -124 -64 -264 -36 -316 65 -32 61 -40
59 240 59 l255 0 0 33 c0 17 -6 55 -14 82 -29 110 -86 184 -172 224 -65 31
-190 38 -254 15z m175 -117 c40 -16 67 -36 88 -67 34 -49 30 -50 -157 -50
l-175 0 11 30 c26 75 147 120 233 87z"/>
<path d="M6270 4704 c-146 -53 -219 -172 -208 -338 6 -87 38 -156 98 -210 72
-65 119 -81 240 -81 94 0 111 3 160 27 30 15 65 36 78 47 l24 21 -33 45 c-18
25 -35 44 -38 43 -3 -2 -30 -16 -60 -32 -124 -64 -264 -36 -316 65 -32 61 -40
59 240 59 l255 0 0 33 c0 17 -6 55 -14 82 -29 110 -86 184 -172 224 -65 31
-190 38 -254 15z m175 -117 c40 -16 67 -36 88 -67 34 -49 30 -50 -157 -50
l-175 0 11 30 c26 75 147 120 233 87z"/>
</g>
</svg>
